<?xml version="1.0" encoding="UTF-8" standalone="no"?>
<svg
   xmlns:dc="http://purl.org/dc/elements/1.1/"
   xmlns:cc="http://creativecommons.org/ns#"
   xmlns:rdf="http://www.w3.org/1999/02/22-rdf-syntax-ns#"
   xmlns:svg="http://www.w3.org/2000/svg"
   xmlns="http://www.w3.org/2000/svg"
   xmlns:sodipodi="http://sodipodi.sourceforge.net/DTD/sodipodi-0.dtd"
   xmlns:inkscape="http://www.inkscape.org/namespaces/inkscape"
   version="1.0"
   width="512pt"
   height="512pt"
   viewBox="0 0 512 512"
   preserveAspectRatio="xMidYMid meet"
   id="svg4688"
   sodipodi:docname="reverse-anycolor.svg"
   inkscape:version="0.92.2 (5c3e80d, 2017-08-06)">
  <defs
     id="defs4692" />
  <sodipodi:namedview
     pagecolor="#ffffff"
     bordercolor="#666666"
     borderopacity="1"
     objecttolerance="10"
     gridtolerance="10"
     guidetolerance="10"
     inkscape:pageopacity="0"
     inkscape:pageshadow="2"
     inkscape:window-width="1366"
     inkscape:window-height="745"
     id="namedview4690"
     showgrid="false"
     inkscape:snap-bbox="true"
     inkscape:bbox-paths="true"
     inkscape:bbox-nodes="true"
     inkscape:snap-bbox-midpoints="true"
     inkscape:snap-bbox-edge-midpoints="true"
     inkscape:snap-object-midpoints="true"
     inkscape:snap-center="true"
     inkscape:snap-midpoints="true"
     inkscape:snap-smooth-nodes="true"
     inkscape:snap-intersection-paths="true"
     inkscape:object-paths="true"
     inkscape:snap-page="true"
     inkscape:snap-global="false"
     inkscape:zoom="0.70710678"
     inkscape:cx="367.78293"
     inkscape:cy="327.33662"
     inkscape:window-x="-8"
     inkscape:window-y="-8"
     inkscape:window-maximized="1"
     inkscape:current-layer="layer3"
     fit-margin-top="0"
     fit-margin-left="0"
     fit-margin-right="0"
     fit-margin-bottom="0" />
  <metadata
     id="metadata4670">
Created by potrace 1.15, written by Peter Selinger 2001-2017
<rdf:RDF>
  <cc:Work
     rdf:about="">
    <dc:format>image/svg+xml</dc:format>
    <dc:type
       rdf:resource="http://purl.org/dc/dcmitype/StillImage" />
    <dc:title></dc:title>
  </cc:Work>
</rdf:RDF>
</metadata>
  <g
     inkscape:groupmode="layer"
     id="layer10"
     inkscape:label="Layer 5"
     style="display:none">
    <ellipse
       style="display:inline;opacity:1;fill:#ffff00;fill-opacity:1;stroke-width:6.57692194"
       id="path4848"
       cx="306.375"
       cy="312.49994"
       rx="602.625"
       ry="526.5" />
  </g>
  <g
     inkscape:groupmode="layer"
     id="layer3"
     inkscape:label="Layer 1"
     style="display:inline">
    <path
       style="display:inline;fill:#ffffff;fill-opacity:1;stroke-width:1"
       d="M 341.33398,0 A 341.33334,341.33334 0 0 0 0,341.33398 341.33334,341.33334 0 0 0 341.33398,682.66602 341.33334,341.33334 0 0 0 682.66602,341.33398 341.33334,341.33334 0 0 0 341.33398,0 Z M 480.5,83.007812 595.6582,198.16602 480.5,313.32422 365.3418,198.16602 Z M 279.75391,197.44922 h 10.0957 v 81.27344 h -10.0957 z m -172.91797,20.25 c 7.90836,0 13.72045,1.48932 17.43554,4.46875 3.75188,2.94264 5.62696,7.5597 5.62696,13.84961 v 29.57226 c 0,2.53804 0.27638,4.1745 0.82812,4.91016 0.55175,0.73566 1.54593,1.10352 2.98047,1.10352 0.29427,0 0.64226,-0.0179 1.04688,-0.0547 0.44139,-0.0736 0.95639,-0.16504 1.54492,-0.27539 v 7.66992 c -1.21384,0.33105 -2.27964,0.55176 -3.19922,0.66211 -0.88279,0.1471 -1.72984,0.2207 -2.53906,0.2207 -3.31048,0 -5.79203,-0.7178 -7.44727,-2.15234 -1.65524,-1.43454 -2.48437,-3.60586 -2.48437,-6.51172 v -0.33008 c -3.08978,3.23691 -6.38061,5.66475 -9.875,7.2832 -3.45761,1.61846 -7.13615,2.42774 -11.03516,2.42774 -6.032425,0 -10.740957,-1.56289 -14.125,-4.68945 -3.384043,-3.16335 -5.076172,-7.52193 -5.076172,-13.07618 0,-5.37033 1.65632,-9.58371 4.966797,-12.63672 3.34726,-3.05299 8.42169,-5.01954 15.226565,-5.90234 1.7288,-0.18391 4.06516,-0.44239 7.00781,-0.77344 5.03928,-0.51496 8.12926,-1.0101 9.26953,-1.48828 1.14028,-0.44139 1.89389,-1.01205 2.26172,-1.71094 0.36783,-0.73566 0.55273,-2.29855 0.55273,-4.68945 0,-3.01621 -1.10356,-5.279 -3.31054,-6.78711 -2.20699,-1.5081 -5.53558,-2.26172 -9.98633,-2.26172 -4.59789,0 -8.075571,0.91866 -10.429688,2.75782 -2.317334,1.83915 -3.474609,4.56127 -3.47461,8.16601 h -9.380859 v -0.4414 c 0,-5.95886 2.097745,-10.6674 6.291016,-14.125 4.193271,-3.45761 9.9676,-5.18555 17.324221,-5.18555 z m 67.81054,0 c 7.87158,0 14.14301,2.8315 18.81446,8.49609 4.70823,5.6646 7.0625,13.26029 7.0625,22.78711 0,9.63717 -2.37413,17.30644 -7.11914,23.00781 -4.74502,5.70138 -11.03435,8.55274 -18.86914,8.55274 -4.15649,0 -7.81713,-0.73571 -10.98047,-2.20703 -3.12656,-1.50811 -5.84672,-3.7888 -8.16407,-6.8418 v 22.48633 h 57.38086 v -74.35156 h 9.71094 v 8.33203 c 2.46447,-3.53118 5.2224,-6.12406 8.27539,-7.7793 3.08978,-1.65524 6.75042,-2.48242 10.98047,-2.48242 7.87158,0 14.143,2.8315 18.81445,8.49609 4.70824,5.6646 7.0625,13.26029 7.0625,22.78711 0,9.63717 -2.37217,17.30644 -7.11718,23.00781 -4.74502,5.70138 -11.0363,8.55274 -18.8711,8.55274 -4.15648,0 -7.81517,-0.73571 -10.97851,-2.20703 -3.12656,-1.50811 -5.84868,-3.7888 -8.16602,-6.8418 v 22.48633 h 42.08008 v 27.1543 H 194.01953 V 517.44336 H 163.52539 V 321.13477 H 92.982422 v -27.1543 h 52.697268 v -74.35156 h 9.71093 v 8.33203 c 2.46448,-3.53118 5.2224,-6.12406 8.2754,-7.7793 3.08977,-1.65524 6.75041,-2.48242 10.98046,-2.48242 z m 154.32227,0 c 8.49689,0 15.0626,2.61079 19.69727,7.83398 4.67145,5.2232 7.00781,12.59819 7.00781,22.125 0,1.21384 -0.0179,2.1146 -0.0547,2.70313 0,0.58853 -0.0377,1.15919 -0.11133,1.71094 h -42.65039 c 0.11035,6.21634 1.65534,11.03425 4.63477,14.45507 2.97943,3.38405 7.1173,5.07618 12.41406,5.07618 4.04614,0 7.37668,-1.03 9.98828,-3.08985 2.64838,-2.09663 4.35842,-5.05737 5.13086,-8.88281 h 9.82031 c -1.06671,6.5106 -3.89821,11.64266 -8.49609,15.39453 -4.59789,3.75187 -10.39208,5.62695 -17.38086,5.62695 -8.20263,0 -14.67686,-2.75793 -19.42187,-8.27539 -4.74503,-5.51746 -7.11719,-13.03959 -7.11719,-22.5664 0,-10.07857 2.35426,-17.95064 7.0625,-23.61524 4.70823,-5.66459 11.20037,-8.49609 19.47656,-8.49609 z m 0.33203,8.82812 c -4.89215,0 -8.75559,1.47142 -11.58789,4.41407 -2.79551,2.94264 -4.43198,7.22764 -4.91016,12.85547 h 32.44336 c -0.0368,-5.51748 -1.43462,-9.76667 -4.19336,-12.7461 -2.75873,-3.01621 -6.67588,-4.52344 -11.75195,-4.52344 z m -156.80664,0.10938 c -5.59103,0 -9.8959,1.98641 -12.91211,5.95898 -3.01621,3.97258 -4.52344,9.63753 -4.52344,16.99414 0,7.35662 1.45352,12.89233 4.35938,16.60743 2.94264,3.6783 7.33704,5.51757 13.18555,5.51757 5.59102,0 9.89589,-2.02417 12.9121,-6.07031 3.05301,-4.08292 4.57813,-9.85725 4.57813,-17.32422 0,-6.7313 -1.5808,-12.0284 -4.74414,-15.89062 -3.12656,-3.86223 -7.41157,-5.79297 -12.85547,-5.79297 z m 67.0918,0 c -5.59103,0 -9.89395,1.98641 -12.91016,5.95898 -3.01621,3.97258 -4.52539,9.63753 -4.52539,16.99414 0,7.35662 1.45351,12.89233 4.35938,16.60743 2.94264,3.6783 7.33899,5.51757 13.1875,5.51757 5.59102,0 9.89394,-2.02417 12.91015,-6.07031 3.053,-4.08292 4.58008,-9.85725 4.58008,-17.32422 0,-6.7313 -1.58275,-12.0284 -4.74609,-15.89062 -3.12657,-3.86223 -7.41158,-5.79297 -12.85547,-5.79297 z m -119.89453,22.01562 c -2.64839,1.43454 -7.18992,2.55601 -13.62696,3.36524 -2.28055,0.29426 -3.99253,0.53287 -5.13281,0.7168 -3.60474,0.58852 -6.197624,1.65628 -7.779296,3.20117 -1.581673,1.54489 -2.373047,3.78782 -2.373047,6.73047 0,2.94264 0.920612,5.20543 2.759765,6.7871 1.839155,1.58169 4.469796,2.3711 7.890628,2.3711 5.33354,0 9.71003,-1.34218 13.13086,-4.02734 3.42082,-2.68518 5.13086,-6.12314 5.13086,-10.31641 z m 158.53711,45.32813 h 27.30859 v 83.89258 c 4.95575,-8.79899 11.78067,-15.47419 20.47851,-20.02539 8.69786,-4.65234 18.8633,-6.97852 30.49415,-6.97852 12.23766,0 22.55283,1.87118 30.94726,5.61328 8.39443,3.64096 14.86872,9.15406 19.41992,16.53711 2.52845,3.94437 4.34843,8.59673 5.46094,13.95703 1.11252,5.25917 1.66797,13.65389 1.66797,25.1836 v 7.73632 97.54688 h -27.60938 v -99.97461 c 0,-16.0809 -2.47784,-27.15439 -7.43359,-33.22266 -4.85461,-6.06826 -13.24934,-9.10351 -25.18359,-9.10351 -14.76612,0 -26.49942,4.19735 -35.19727,12.5918 -8.69785,8.29329 -13.04492,19.5204 -13.04492,33.67968 v 96.0293 h -27.30859 z m 231.82031,55.67578 c 23.36282,0 41.4168,7.18141 54.16015,21.54297 12.8445,14.36156 19.26563,34.6393 19.26563,60.83398 0,3.33755 -0.0493,5.81539 -0.15039,7.4336 0,1.6182 -0.10241,3.18606 -0.30469,4.70312 H 465.75195 c 0.30342,17.09228 4.55003,30.34028 12.74219,39.7461 8.19216,9.30467 19.57093,13.95703 34.13477,13.95703 11.12515,0 20.2782,-2.83238 27.45898,-8.4961 7.28192,-5.76485 11.98353,-13.90549 14.10742,-24.42383 h 27.00391 c -2.933,17.9014 -10.71911,32.01013 -23.36133,42.32618 -12.64222,10.31605 -28.57289,15.47461 -47.78906,15.47461 -22.55372,0 -40.35362,-7.5852 -53.40039,-22.75586 -13.04677,-15.17067 -19.57031,-35.85415 -19.57032,-62.04883 0,-27.71175 6.47234,-49.35447 19.41797,-64.92969 12.94564,-15.57521 30.79674,-23.36328 53.55274,-23.36328 z m 0.91015,24.27344 c -13.45132,0 -24.06981,4.0457 -31.85742,12.13672 -7.68647,8.09102 -12.18716,19.87358 -13.50195,35.34765 h 89.20312 c -0.10113,-15.17066 -3.94396,-26.85276 -11.52929,-35.04492 -7.58533,-8.2933 -18.35745,-12.43945 -32.31446,-12.43945 z"
       transform="scale(0.74999998)"
       id="path4704"
       inkscape:connector-curvature="0" />
  </g>
  <g
     inkscape:groupmode="layer"
     id="layer4"
     inkscape:label="Layer 2"
     style="display:none">
    <g
       style="fill:#000000;stroke:none"
       transform="matrix(0.1,0,0,-0.1,0,512)"
       id="g4686">
      <path
         d="m 3140,4085 -455,-455 458,-458 457,-457 457,457 458,458 -455,455 c -250,250 -457,455 -460,455 -3,0 -210,-205 -460,-455 z"
         id="path4672"
         inkscape:connector-curvature="0" />
      <path
         d="m 2090,3345 v -325 h 40 40 v 325 325 h -40 -40 z"
         id="path4674"
         inkscape:connector-curvature="0" />
      <path
         d="m 741,3488 c -69,-19 -111,-66 -111,-123 0,-22 4,-25 35,-25 29,0 35,4 35,20 0,12 11,32 25,45 20,21 34,25 83,25 72,0 112,-25 112,-70 0,-38 -15,-47 -90,-55 -94,-10 -163,-31 -189,-59 -28,-30 -41,-85 -31,-132 23,-102 157,-135 262,-64 52,36 56,36 60,8 4,-28 51,-52 84,-44 34,9 35,63 2,68 -23,3 -23,6 -28,170 l -5,167 -29,30 c -43,44 -137,62 -215,39 z m 179,-277 c 0,-81 -56,-131 -147,-131 -66,0 -93,20 -93,70 0,41 18,67 53,75 32,8 160,32 175,34 8,1 12,-15 12,-48 z"
         id="path4676"
         inkscape:connector-curvature="0" />
      <path
         d="m 1264,3489 c -18,-5 -46,-22 -63,-38 l -31,-29 v 34 c 0,33 -1,34 -40,34 h -40 V 3205 2920 H 895 700 v -105 -105 h 270 270 v -740 -740 h 110 110 v 740 740 h 265 265 v 105 105 h -160 -160 v 81 81 l 30,-26 c 29,-24 86,-46 120,-46 76,0 160,64 186,142 20,61 16,187 -9,234 -60,115 -208,147 -296,65 l -31,-29 v 34 c 0,33 -1,34 -40,34 h -40 v -285 -285 h -210 -210 v 81 81 l 30,-26 c 29,-24 86,-46 120,-46 76,0 160,64 186,142 20,61 16,187 -9,234 -25,49 -76,91 -122,103 -51,13 -68,13 -111,0 z m 127,-86 c 40,-34 59,-79 59,-140 0,-73 -17,-118 -56,-152 -29,-26 -43,-31 -87,-31 -82,0 -119,32 -137,117 -20,94 10,190 70,220 14,7 46,13 72,13 36,0 54,-6 79,-27 z m 500,0 c 40,-34 59,-79 59,-140 0,-73 -17,-118 -56,-152 -29,-26 -43,-31 -87,-31 -82,0 -119,32 -137,117 -20,94 10,190 70,220 14,7 46,13 72,13 36,0 54,-6 79,-27 z"
         id="path4678"
         inkscape:connector-curvature="0" />
      <path
         d="m 2403,3490 c -127,-30 -188,-207 -126,-362 65,-163 326,-149 378,20 6,20 3,22 -29,22 -26,0 -36,-5 -41,-20 -3,-10 -20,-31 -36,-45 -24,-19 -42,-25 -81,-25 -80,0 -127,39 -141,118 l -6,32 h 176 176 l -7,62 c -10,81 -25,116 -69,155 -54,47 -118,61 -194,43 z m 146,-85 c 16,-14 32,-34 35,-43 2,-9 7,-27 11,-39 l 6,-23 h -140 -140 l 9,29 c 21,74 56,100 137,101 41,0 58,-5 82,-25 z"
         id="path4680"
         inkscape:connector-curvature="0" />
      <path
         d="m 2090,2075 v -845 h 99 100 l 3,418 c 3,403 4,419 25,464 30,66 96,133 162,165 51,25 66,28 166,28 128,0 172,-15 210,-74 44,-66 47,-104 52,-563 l 5,-438 h 100 100 l -4,488 c -4,482 -4,488 -27,546 -40,100 -122,172 -230,201 -222,58 -444,-5 -543,-155 -16,-24 -17,-7 -17,293 l -1,317 h -100 -100 z"
         id="path4682"
         inkscape:connector-curvature="0" />
      <path
         d="m 3730,2480 c -120,-19 -199,-61 -281,-147 -66,-69 -112,-154 -141,-262 -30,-110 -30,-353 0,-463 53,-196 172,-327 346,-380 90,-28 249,-30 345,-5 165,44 294,163 342,318 10,33 19,65 19,70 0,5 -44,9 -98,9 h -97 l -17,-47 c -40,-112 -133,-174 -274,-181 -102,-5 -163,9 -230,53 -84,55 -133,146 -149,279 l -7,56 h 447 448 l -6,123 c -8,150 -26,229 -75,321 -64,122 -168,207 -295,240 -74,19 -208,27 -277,16 z m 230,-186 c 41,-12 67,-29 110,-72 60,-61 84,-116 96,-218 l 7,-54 h -342 c -266,0 -341,3 -341,13 1,30 32,141 50,177 40,79 107,135 190,161 45,13 175,10 230,-7 z"
         id="path4684"
         inkscape:connector-curvature="0" />
    </g>
  </g>
  <g
     inkscape:groupmode="layer"
     id="layer5"
     inkscape:label="Layer 3"
     style="display:inline" />
  <g
     inkscape:groupmode="layer"
     id="layer6"
     inkscape:label="Layer 4"
     style="display:inline" />
</svg>
